<?xml version="1.0" encoding="UTF-8" standalone="no"?>
<!-- Created with Inkscape (http://www.inkscape.org/) -->

<svg
   xmlns:dc="http://purl.org/dc/elements/1.1/"
   xmlns:cc="http://creativecommons.org/ns#"
   xmlns:rdf="http://www.w3.org/1999/02/22-rdf-syntax-ns#"
   xmlns:svg="http://www.w3.org/2000/svg"
   xmlns="http://www.w3.org/2000/svg"
   xmlns:sodipodi="http://sodipodi.sourceforge.net/DTD/sodipodi-0.dtd"
   xmlns:inkscape="http://www.inkscape.org/namespaces/inkscape"
   width="210mm"
   height="297mm"
   viewBox="0 0 744.09448819 1052.3622047"
   id="svg2"
   version="1.1"
   inkscape:version="0.91 r13725"
   sodipodi:docname="LDVT.svg">
  <defs
     id="defs4" />
  <sodipodi:namedview
     id="base"
     pagecolor="#ffffff"
     bordercolor="#666666"
     borderopacity="1.0"
     inkscape:pageopacity="0.0"
     inkscape:pageshadow="2"
     inkscape:zoom="0.7"
     inkscape:cx="615.56536"
     inkscape:cy="893.70944"
     inkscape:document-units="px"
     inkscape:current-layer="svg2"
     showgrid="false"
     showguides="false"
     inkscape:window-width="1366"
     inkscape:window-height="705"
     inkscape:window-x="-8"
     inkscape:window-y="-8"
     inkscape:window-maximized="1" />
  <metadata
     id="metadata7">
    <rdf:RDF>
      <cc:Work
         rdf:about="">
        <dc:format>image/svg+xml</dc:format>
        <dc:type
           rdf:resource="http://purl.org/dc/dcmitype/StillImage" />
        <dc:title></dc:title>
      </cc:Work>
    </rdf:RDF>
  </metadata>
  <g
     inkscape:label="Capa 1"
     inkscape:groupmode="layer"
     id="layer1">
    <path
       style="fill:#ff6600"
       id="path3392"
       d="m 50.326694,30.861571 c 1.70753,4.05472 4.01771,7.82621 6.07881,11.70633 3.02993,5.63654 6.2266,11.16203 8.80318,17.02704 3.34742,8.08957 5.27072,16.66019 7.28781,25.1515 2.08796,9.91679 3.10405,20.011349 3.71068,30.114029 0.37197,7.31327 0.44455,14.63705 0.46423,21.95833 0.0205,6.6764 -1.32323,13.23731 -2.42506,19.79106 -1.00034,6.09915 -2.14184,12.17118 -3.28053,18.24555 -0.41528,2.14674 -0.76641,4.30438 -1.09716,6.46539 0,0 -10.91059,5.33595 -10.91059,5.33595 l 0,0 c 0.38965,-2.19896 0.80333,-4.39318 1.25976,-6.57945 1.19639,-6.08178 2.33602,-12.17273 3.40809,-18.27787 1.09919,-6.48712 2.35641,-12.98326 2.45532,-19.58523 0.0257,-7.33983 0.0823,-14.68267 -0.20599,-22.01874 -0.48525,-10.05128 -1.27834,-20.1239 -3.58539,-29.947729 -1.96181,-8.4151 -3.98397,-16.86647 -7.38768,-24.83935 -2.67167,-5.78182 -5.73392,-11.35262 -8.86783,-16.89503 -2.10346,-3.87217 -4.39982,-7.63535 -6.46389,-11.52734 0,0 10.75624,-6.12444 10.75624,-6.12444 z"
       inkscape:connector-curvature="0" />
    <path
       style="fill:#ff6600"
       id="path3394"
       d="m 22.562924,184.26033 c -23.35688979,13.38131 2.45951,-1.48357 9.14907,-5.13743 3.98242,-2.28309 8.08918,-4.26549 12.44597,-5.71443 4.82542,-1.41872 9.8633,-1.66081 14.85706,-1.82626 5.56708,-0.14159 11.12244,-0.14039 16.67112,0.34997 7.58463,0.66986 14.88742,2.73115 22.15808,4.87045 7.231506,2.20731 14.434026,4.58234 21.388016,7.56333 4.81448,2.10091 9.28345,4.8835 13.84347,7.47026 3.58801,2.37938 7.3381,4.43711 11.28793,6.13959 1.95318,0.77503 3.92666,1.47388 5.95113,2.03551 0,0 -10.10838,6.90342 -10.10838,6.90342 l 0,0 c -2.01523,-0.64945 -4.00259,-1.3794 -5.94639,-2.22143 -3.9396,-1.77969 -7.65258,-3.96518 -11.29701,-6.28738 -4.47238,-2.60752 -8.88956,-5.33869 -13.629,-7.44765 -6.86274,-2.98691 -13.955946,-5.4182 -21.123176,-7.56558 -7.27826,-2.1 -14.62573,-3.95571 -22.20833,-4.54054 -5.5549,-0.38385 -11.12016,-0.33733 -16.68442,-0.16821 -4.94121,0.2123 -9.92391,0.53805 -14.65092,2.12071 -4.30464,1.58346 -8.38454,3.63614 -12.3665,5.90968 -1.74038,0.97116 -3.47416,1.95399 -5.21694,2.92082 -0.55075,0.30553 -2.19759,1.23155 -1.65401,0.91346 3.24209,-1.89721 24.43581,-14.12141 -2.53251,1.44339 0,0 9.66574,-7.73168 9.66574,-7.73168 z"
       inkscape:connector-curvature="0" />
    <path
       style="fill:#ff6600"
       id="path3398"
       d="m 132.87996,55.877721 c 1.7395,3.5536 3.74657,6.98346 5.72857,10.40931 3.07595,5.35934 6.07114,10.76105 9.21715,16.08069 4.48461,7.47346 8.90152,14.99957 12.77692,22.810199 3.09464,6.27046 5.15646,12.94579 7.03603,19.65708 1.46851,5.87972 2.56287,11.84824 3.59956,17.81718 0.79954,4.65728 1.13081,9.36877 1.3573,14.08235 0.12112,2.64195 0.12193,5.28713 0.12362,7.93118 -0.01,2.45194 -0.0301,4.90376 -0.022,7.35573 0.0108,1.97493 0.0216,3.94986 0.0272,5.92481 0,0 -10.99205,5.6007 -10.99205,5.6007 l 0,0 c 0.006,-1.98524 0.0167,-3.97046 0.0308,-5.95566 0.0128,-2.45086 1.6e-4,-4.90167 0.009,-7.35253 0.019,-2.65059 0.0432,-5.30129 0.0153,-7.95191 -0.0882,-4.69614 -0.36077,-9.39264 -1.09369,-14.03769 -0.97824,-5.94272 -2.09374,-11.86486 -3.52704,-17.71655 -1.83034,-6.65958 -3.68202,-13.34034 -6.70647,-19.5814 -3.8954,-7.77191 -8.11959,-15.359589 -12.81226,-22.683299 -3.22767,-5.27798 -6.36149,-10.61031 -9.46571,-15.96112 -1.9921,-3.45364 -4.0032,-6.89113 -6.05888,-10.30464 0,0 10.75624,-6.12443 10.75624,-6.12443 z"
       inkscape:connector-curvature="0" />
    <path
       style="fill:#ff6600"
       id="path3400"
       d="m 67.785234,111.0759 c 2.36108,-2.45207 4.42778,-5.16447 6.66958,-7.72429 2.97834,-3.540169 6.33402,-6.700759 9.75904,-9.796109 4.09395,-3.69073 8.53996,-6.96541 13.14801,-9.97981 8.505406,-5.19127 17.009926,-10.44035 25.893506,-14.96366 5.97806,-2.80045 12.37473,-4.46625 18.81496,-5.79312 4.92299,-1.00206 9.94121,-1.23745 14.94828,-1.35962 3.06603,-0.0371 6.15031,-0.19113 9.16678,0.48688 1.40211,0.31515 3.5852,1.06202 4.9329,1.50042 6.69769,2.53081 12.89922,6.21701 18.99867,9.92782 5.99462,3.71663 11.94456,7.54599 17.30812,12.14082 4.63378,4.16719 8.43903,9.09358 11.74979,14.34554 2.57518,4.016849 4.42681,8.363349 5.87386,12.888799 1.25012,3.55612 1.54978,7.29548 1.70579,11.02996 0.15688,5.42052 0.11788,10.81962 -0.52899,16.20623 -0.74248,4.71319 -1.85875,9.37061 -3.68654,13.78261 -2.44136,4.87872 -6.43925,8.53786 -10.5562,11.98518 -2.97588,2.52508 -5.93521,5.05524 -9.20282,7.19645 -5.41786,3.10592 -10.84512,6.69049 -16.71762,9.05605 -1.29806,0.52289 -2.6288,0.96124 -3.93318,1.46816 -4.2935,1.63032 -8.65653,3.10284 -13.13293,4.13914 -3.77537,1.14293 -7.6938,1.523 -11.61175,1.75523 -3.88539,0.16965 -7.77632,0.14504 -11.66449,0.13554 -4.73666,-0.0194 -9.47334,-0.03 -14.20995,-0.0602 -5.5624,-0.0316 -11.12497,-0.0184 -16.68724,0.0262 -3.06101,0.022 -6.12191,0.0497 -9.18297,0.0619 -2.07583,0.12417 -4.20555,-0.22889 -6.253446,0.17444 -3.80125,0.92966 -11.93475,6.47044 8.749876,-5.21547 0,0 -11.521916,4.54448 -11.521916,4.54448 l 0,0 c 6.032856,-3.48696 7.625406,-6.10217 12.669896,-6.69491 2.09456,-0.0812 4.19267,-0.004 6.28838,-0.0252 3.00437,0.012 6.00857,0.0395 9.01288,0.0618 5.53516,0.046 11.07061,0.0589 16.60592,0.0338 4.77549,-0.0231 9.55099,-0.0203 14.32653,-0.0254 3.8802,-0.009 7.76361,0.005 11.63906,-0.21593 3.86855,-0.28088 7.70205,-0.81281 11.44035,-1.88633 4.43557,-1.12013 8.77617,-2.6001 13.03506,-4.26757 0.86059,-0.33514 3.0468,-1.17563 3.93218,-1.56117 4.18753,-1.82344 13.5852,-7.02069 -4.15481,2.92271 3.36667,-2.12567 6.50196,-4.5361 9.50002,-7.16337 4.06981,-3.28005 8.04606,-6.75338 10.61315,-11.39219 1.97568,-4.29941 3.18988,-8.90404 4.0072,-13.55732 0.72706,-5.31647 0.68064,-10.58229 0.44909,-15.93581 -0.16277,-3.63043 -0.42112,-7.27162 -1.54559,-10.75562 -1.3794,-4.44196 -3.09361,-8.74689 -5.56753,-12.7122 -3.20449,-5.17093 -6.9838,-9.980779 -11.53715,-14.042819 -5.35825,-4.47931 -11.06894,-8.50514 -17.08321,-12.06204 -6.08658,-3.66335 -12.2656,-7.30345 -19.03962,-9.55651 -1.61173,-0.48242 -3.20808,-1.01208 -4.86825,-1.31388 -2.99355,-0.54419 -6.04464,-0.32017 -9.06608,-0.30633 -4.92433,0.13412 -9.85517,0.43344 -14.69078,1.43982 -6.39539,1.37832 -12.74973,3.09234 -18.62191,6.04883 -5.17892,2.71111 -3.74473,2.01311 4.82445,-2.98049 0.87397,-0.50929 -1.74515,1.02332 -2.61738,1.53556 -2.58441,1.51776 -5.15761,3.05387 -7.70823,4.62802 -4.58741,2.94171 -9.013396,6.13278 -13.099166,9.74832 -3.37505,3.10369 -6.83462,6.11234 -9.77381,9.65636 -2.19778,2.503099 -4.26373,5.108279 -6.37086,7.686219 0,0 -11.42891,4.73401 -11.42891,4.73401 z"
       inkscape:connector-curvature="0" />
    <path
       style="fill:#ff6600"
       id="path3402"
       d="m 192.08483,51.708371 c 1.97507,3.62177 4.43634,6.96638 6.84963,10.30938 4.41016,6.13733 8.69232,12.37885 12.7046,18.7849 3.61762,6.46953 6.25183,13.39433 9.0223,20.247639 2.34293,5.89301 4.64388,11.80695 7.13443,17.63972 1.7178,4.264 3.30237,8.58142 5.1724,12.78255 2.05621,4.73178 4.52629,9.26269 6.9114,13.83227 1.37418,2.43267 2.63514,4.94515 4.26879,7.21869 1.05373,1.21606 2.00283,2.49853 2.97558,3.77445 1.0714,1.59174 2.26983,3.08708 3.45322,4.59463 1.46731,1.84437 2.94704,3.67128 4.46425,5.47304 0.25797,-0.19864 1.84842,2.46164 2.03267,2.28114 0.19149,-0.18759 0.30542,-0.90955 0.0599,-0.80195 -3.42905,1.5028 -6.65424,3.43339 -9.98135,5.15009 1.51428,-6.80201 1.41029,-13.87961 1.56492,-20.8171 -0.30995,-12.57331 -2.49223,-25.01399 -4.54687,-37.39466 -2.93135,-16.063829 -5.87025,-32.121399 -9.12571,-48.122889 -2.39573,-11.54051 -4.84651,-23.06176 -6.37734,-34.75447 -0.63965,-5.07247 -0.9218,-10.17954 -1.05222,-15.28752 0.01,-1.04631 -0.23578,-4.04362 0.93262,-4.71992 3.7146,-2.1500697 7.52192,-4.1357897 11.28288,-6.2036997 0.27256,0.0912 0.57076,0.12662 0.81771,0.27371 2.21824,1.32125 4.71289,5.0595397 6.2712,7.0387197 2.65988,3.47954 5.49354,6.81939 7.94478,10.4541 0.64538,1.05245 1.22085,2.14045 1.76184,3.24888 0,0 -10.70086,6.0609 -10.70086,6.0609 l 0,0 c -0.4885,-1.07297 -1.02199,-2.12015 -1.59501,-3.15111 -2.31297,-3.66967 -5.05359,-7.02308 -7.68222,-10.46667 -0.92317,-1.1126 -4.49831,-5.83478 -6.10013,-6.03852 -0.18757,-0.0239 -0.37226,0.0666 -0.55838,0.1 3.35345,-1.96744 6.72902,-3.8976697 10.06037,-5.9023097 0.3751,-0.22572 -0.69542,0.0923 -1.0702,0.6221 -0.63003,0.89066 -0.45493,2.1367297 -0.50663,3.1420397 -0.0595,5.14153 0.0592,10.28613 0.53607,15.40892 1.18547,11.77526 3.3469,23.39763 5.76114,34.97894 3.05382,16.0509 6.03662,32.11458 9.10005,48.163649 2.25712,12.34519 4.65618,24.72276 5.20404,37.29152 -0.0463,6.96046 0.005,13.95956 -0.83575,20.87924 -0.2444,0.17369 -7.65499,10.20426 -11.74343,7.29331 -0.82616,-0.58822 -1.12255,-1.84374 -2.01016,-2.39211 -1.49527,-1.83253 -2.93816,-3.70379 -4.47214,-5.50493 -1.1963,-1.51628 -2.40344,-3.02115 -3.53649,-4.58672 -0.94598,-1.30965 -1.92993,-2.5799 -2.93957,-3.84409 -1.58081,-2.37887 -2.85153,-4.93805 -4.15625,-7.47455 -2.27999,-4.64397 -4.71454,-9.21082 -6.89673,-13.9019 -1.92311,-4.19231 -3.53685,-8.51338 -5.15791,-12.8294 -2.41284,-5.88094 -4.54339,-11.87232 -6.97777,-17.7457 -2.72972,-6.79829 -5.26321,-13.695339 -8.9389,-20.063949 -3.9124,-6.4358 -8.10955,-12.70167 -12.70179,-18.67505 -2.52136,-3.3672 -5.15583,-6.66701 -7.37922,-10.24084 0,0 10.75624,-6.12443 10.75624,-6.12443 z"
       inkscape:connector-curvature="0" />
    <path
       style="fill:#ff6600"
       id="path3406"
       d="m 102.77596,56.079171 c 6.40935,-4.76941 13.52957,-8.59678 20.6857,-12.1238 5.65515,-2.66607 11.64441,-4.45395 17.78824,-5.53315 8.66975,-1.07457 17.43485,-0.95893 26.15546,-0.99331 6.50469,0.17343 13.01047,0.45726 19.4119,1.70056 2.90927,0.56505 4.70201,1.07016 7.54477,1.80204 7.75151,2.32494 15.02534,5.95545 22.3992,9.24148 8.5863,3.80789 17.25829,7.41499 26.08244,10.63461 11.75259,4.16574 24.04419,6.36287 36.28788,8.50318 7.43041,1.1185 14.89705,2.28464 22.42352,2.48462 3.9394,0.10467 4.73995,-0.0269 8.56695,-0.2664 8.38988,-0.70953 15.89657,-4.40599 23.19047,-8.32939 -1.90131,1.07974 -3.68709,2.39475 -5.70394,3.23921 -1.46129,0.61186 2.69451,-1.66752 4.02053,-2.53436 4.06213,-2.65546 7.84532,-5.57445 11.43377,-8.83459 2.51438,-2.33778 4.77026,-4.95828 6.30561,-8.04237 0.11249,-0.29452 0.22499,-0.58906 0.33748,-0.88358 0,0 11.14828,-5.22777 11.14828,-5.22777 l 0,0 c -0.10194,0.33654 -0.20387,0.67309 -0.30581,1.00963 -1.42945,3.34852 -3.83059,6.13563 -6.45162,8.62603 -8.79529,8.22607 -19.38063,14.10741 -29.84498,19.93239 -7.41547,3.89272 -15.06744,7.49331 -23.57417,7.97889 -3.78795,0.14136 -4.62212,0.24839 -8.51413,0.0659 -7.46064,-0.34994 -14.84132,-1.63645 -22.2056,-2.79621 -12.33745,-2.22221 -24.76571,-4.26458 -36.61232,-8.51121 -8.92809,-3.13517 -17.63402,-6.77636 -26.28858,-10.60048 -7.35488,-3.26445 -14.65316,-6.75885 -22.40175,-9.00659 -2.66286,-0.69511 -4.66479,-1.25958 -7.38186,-1.79298 -6.31376,-1.23947 -12.73908,-1.49822 -19.15669,-1.63307 -8.7895,0.0999 -17.63623,0.0719 -26.34695,1.3946 -6.11366,1.22693 -12.08945,3.06328 -17.68033,5.868 -5.27554,2.66464 -2.40735,1.27823 5.7003,-3.54799 0.66513,-0.39593 -1.35434,0.75047 -2.01895,1.14726 -0.16878,0.10078 -2.37568,1.49293 -2.75216,1.77153 -0.26511,0.19619 -0.50001,0.43019 -0.75001,0.64529 0,0 -11.49265,4.61209 -11.49265,4.61209 z"
       inkscape:connector-curvature="0" />
    <path
       style="fill:#ff6600"
       id="path3410"
       d="m 285.29549,77.286411 c 0.0421,5.00754 0.93093,9.98413 1.90983,14.8831 1.30793,7.17225 2.60844,14.339719 3.60458,21.562619 2.14345,13.64093 2.96204,27.4282 3.52602,41.20898 0.34845,9.81433 0.58722,19.63219 0.82316,29.44976 0,0 -10.6278,5.4174 -10.6278,5.4174 l 0,0 c 0.20036,-9.9271 0.2375,-19.85867 -0.0737,-29.78433 -0.52849,-13.69325 -1.3003,-27.41309 -3.79801,-40.91422 -1.31127,-7.10378 -2.7019,-14.19196 -4.0097,-21.296289 -0.99207,-4.93825 -1.77637,-9.9229 -2.34317,-14.92793 0,0 10.98883,-5.59909 10.98883,-5.59909 z"
       inkscape:connector-curvature="0" />
    <path
       style="fill:#ff6600"
       id="path3412"
       d="m 277.8667,63.658551 c 0.64526,3.14453 1.62085,6.2091 2.32123,9.34499 0.61675,2.53398 1.29985,5.0516 1.91108,7.58679 0.40235,2.20231 1.02619,4.35196 1.57603,6.51915 0.60195,1.6781 0.30377,3.5853 1.00317,5.21775 0.10421,0.10578 0.20842,0.21156 0.31262,0.31734 0,0 -10.61952,6.37746 -10.61952,6.37746 l 0,0 c -0.16041,-0.21109 -0.32082,-0.42218 -0.48124,-0.63328 -0.74624,-1.72626 -0.54296,-3.63134 -1.0258,-5.43797 -0.52032,-2.18048 -1.22257,-4.31784 -1.5862,-6.53412 -0.56446,-2.56301 -1.25964,-5.09545 -1.81478,-7.66138 -0.6448,-3.16828 -1.59506,-6.2364 -2.53804,-9.32478 0,0 10.94145,-5.77195 10.94145,-5.77195 z"
       inkscape:connector-curvature="0" />
    <path
       style="fill:#ff6600"
       id="path3414"
       d="m 286.98056,75.410351 c -0.0977,2.34503 -0.0742,4.69281 -0.0593,7.03915 0,0 -10.90502,5.55639 -10.90502,5.55639 l 0,0 c 0.0148,-2.3262 0.0398,-4.65396 -0.0593,-6.97879 0,0 11.02348,-5.61675 11.02348,-5.61675 z"
       inkscape:connector-curvature="0" />
    <ellipse
       style="fill:#803300"
       id="path3446"
       cx="183.90587"
       cy="211.77382"
       rx="157.6017"
       ry="4.1693568" />
  </g>
</svg>
